{"title":"ATNAP Malayalam 2016 DesiSCR x264-HDF.mp4","uid":15698368,"size":1153155895,"categoryP":"video","categoryS":"movies","magnet":"?xt=urn:btih:8ecd4839a0506a2a4090471ab16a846c8db361c6&amp;dn=ATNAP+Malayalam+2016+DesiSCR+x264-HDF.mp4&amp;tr=udp%3A%2F%2Ftracker.leechers-paradise.org%3A6969&amp;tr=udp%3A%2F%2Fzer0day.ch%3A1337&amp;tr=udp%3A%2F%2Fopen.demonii.com%3A1337&amp;tr=udp%3A%2F%2Ftracker.coppersurfer.tk%3A6969&amp;tr=udp%3A%2F%2Fexodus.desync.com%3A6969","seeders":2,"leechers":1,"uploader":null,"files":1,"time":1472459421,"description":"http://www.movierulzfull.in/ presents:\r\n\r\nAngane Thanne Nethave Anjettennam Pinnale Malayalam 2016 DesiSCR x264-HDF.mp4\r\n\r\nScreens:\r\n \nhttp://extraimago.com/images/2016/08/29/wqwT.png \nhttp://extraimago.com/images/2016/08/29/wqwj.png \nhttp://extraimago.com/images/2016/08/29/wqwn.png \nhttp://extraimago.com/images/2016/08/29/wqws.png \nhttp://extraimago.com/images/2016/08/29/wqw7.png\r\n\r\nInfo:\r\n\r\nFormat : MPEG-4\r\nFormat profile : Base Media\r\nCodec ID : isom (isom/iso2/avc1/mp41)\r\nFile size : 1.07 GiB\r\nDuration : 2 h 4 min\r\nOverall bit rate : 1 232 kb/s\r\nWriting application : Lavf57.20.100\r\n\r\nVideo\r\nID : 1\r\nFormat : AVC\r\nFormat/Info : Advanced Video Codec\r\nFormat profile :   \r\nFormat settings, CABAC : Yes\r\nFormat settings, ReFrames : 4 frames\r\nCodec ID : avc1\r\nCodec ID/Info : Advanced Video Coding\r\nDuration : 2 h 4 min\r\nBit rate : 1 098 kb/s\r\nWidth : 720 pixels\r\nHeight : 308 pixels\r\nDisplay aspect ratio : 2.35:1\r\nFrame rate mode : Variable\r\nFrame rate : 23.976 (24000/1001) FPS\r\nMinimum frame rate : 23.564 FPS\r\nMaximum frame rate : 24.390 FPS\r\nColor space : YUV\r\nChroma subsampling : 4:2:0\r\nBit depth : 8 bits\r\nScan type : Progressive\r\nBits/(Pixel*Frame) : 0.207\r\nStream size : 980 MiB (89%)\r\nWriting library : x264 core 148 r2665 a01e339\r\nEncoding settings : cabac=1 / ref=3 / deblock=1:-1:-1 / analyse=0x3:0x113 / me=hex / subme=7 / psy=1 / psy_rd=1.00:0.15 / mixed_ref=1 / me_range=16 / chroma_me=1 / trellis=1 / 8x8dct=1 / cqm=0 / deadzone=21,11 / fast_pskip=1 / chroma_qp_offset=-3 / threads=10 / lookahead_threads=1 / sliced_threads=0 / nr=0 / decimate=1 / interlaced=0 / bluray_compat=0 / constrained_intra=0 / bframes=3 / b_pyramid=2 / b_adapt=1 / b_bias=0 / direct=1 / weightb=1 / open_gop=0 / weightp=2 / keyint=240 / keyint_min=24 / scenecut=40 / intra_refresh=0 / rc_lookahead=40 / rc=crf / mbtree=1 / crf=22.0 / qcomp=0.60 / qpmin=0 / qpmax=69 / qpstep=4 / vbv_maxrate=62500 / vbv_bufsize=78125 / crf_max=0.0 / nal_hrd=none / filler=0 / ip_ratio=1.40 / aq=1:1.00\r\nColor range : Limited\r\nColor primaries : BT.601 NTSC\r\nTransfer characteristics : BT.709\r\nMatrix coefficients : BT.601\r\n\r\nAudio\r\nID : 2\r\nFormat : AAC\r\nFormat/Info : Advanced Audio Codec\r\nFormat profile : LC\r\nCodec ID : 40\r\nDuration : 2 h 4 min\r\nBit rate mode : Constant\r\nBit rate : 127 kb/s\r\nChannel(s) : 2 channels\r\nChannel positions : Front: L R\r\nSampling rate : 48.0 kHz\r\nFrame rate : 46.875 FPS (1024 spf)\r\nCompression mode : Lossy\r\nStream size : 114 MiB (10%)\r\nTitle : Stereo\r\nLanguage : Malayalam\r\nDefault : Yes\r\nAlternate group : 1 \r\n \nhttp://www.movierulzfull.in/angane-thanne-nethave-anjettennam-pinnale-full-movie-watch/\r\n \nhttp://tvmoviereviews.drupalgardens.com/content/angane-thanne-nethave-anjettennam-pinnale-review","torrent":{"xt":"urn:btih:8ecd4839a0506a2a4090471ab16a846c8db361c6","amp;dn":"ATNAP+Malayalam+2016+DesiSCR+x264-HDF.mp4","amp;tr":["udp%3A%2F%2Ftracker.leechers-paradise.org%3A6969","udp%3A%2F%2Fzer0day.ch%3A1337","udp%3A%2F%2Fopen.demonii.com%3A1337","udp%3A%2F%2Ftracker.coppersurfer.tk%3A6969","udp%3A%2F%2Fexodus.desync.com%3A6969"],"infoHash":"8ecd4839a0506a2a4090471ab16a846c8db361c6","infoHashBuffer":{"type":"Buffer","data":[142,205,72,57,160,80,106,42,64,144,71,26,177,106,132,108,141,179,97,198]},"announce":[],"urlList":[]}}